<svg width="403" height="146" viewBox="0 0 403 146" fill="none" xmlns="http://www.w3.org/2000/svg">
<path d="M137.448 116.43H128.154V83.1646C128.154 82.5149 128.025 81.9084 127.765 81.3453C127.526 80.7823 127.19 80.2949 126.757 79.8834C126.345 79.4503 125.858 79.1146 125.295 78.8764C124.731 78.6382 124.125 78.5191 123.475 78.5191C122.825 78.5191 122.219 78.6382 121.655 78.8764C121.092 79.1146 120.594 79.4503 120.161 79.8834C119.749 80.2949 119.424 80.7823 119.185 81.3453C118.948 81.9084 118.829 82.5149 118.829 83.1646V116.43H109.502V83.1646C109.502 82.5149 109.383 81.9084 109.145 81.3453C108.906 80.7823 108.571 80.2949 108.137 79.8834C107.726 79.4503 107.239 79.1146 106.675 78.8764C106.112 78.6382 105.506 78.5191 104.855 78.5191C104.205 78.5191 103.599 78.6382 103.036 78.8764C102.472 79.1146 101.974 79.4503 101.54 79.8834C101.129 80.2949 100.805 80.7823 100.566 81.3453C100.328 81.9084 100.208 82.5149 100.208 83.1646V116.43H90.8822V83.1646C90.8822 81.2371 91.2396 79.4286 91.9546 77.7394C92.6909 76.0284 93.6873 74.5449 94.9444 73.2888C96.2227 72.011 97.7062 71.0148 99.3959 70.3C101.108 69.5636 102.927 69.1955 104.855 69.1955C106.588 69.1955 108.256 69.5096 109.859 70.1376C111.463 70.744 112.903 71.6319 114.181 72.8015C115.459 71.6319 116.889 70.744 118.471 70.1376C120.074 69.5096 121.742 69.1955 123.475 69.1955C125.403 69.1955 127.212 69.5636 128.902 70.3C130.614 71.0148 132.097 72.011 133.353 73.2888C134.632 74.5449 135.628 76.0284 136.343 77.7394C137.08 79.4286 137.448 81.2371 137.448 83.1646V116.43ZM177.742 116.43H145.799V69.8452H177.742V79.1688H155.125V88.4923H170.431V97.8154H155.125V107.107H177.742V116.43ZM228.76 93.3328C228.76 95.5422 228.468 97.6749 227.883 99.7328C227.32 101.768 226.517 103.685 225.478 105.482C224.438 107.258 223.182 108.883 221.708 110.356C220.236 111.829 218.611 113.095 216.834 114.156C215.058 115.196 213.141 115.997 211.082 116.561C209.025 117.145 206.891 117.438 204.681 117.438C202.471 117.438 200.337 117.145 198.28 116.561C196.242 115.997 194.325 115.196 192.528 114.156C190.751 113.095 189.126 111.829 187.654 110.356C186.18 108.883 184.913 107.258 183.851 105.482C182.811 103.685 181.999 101.768 181.415 99.7328C180.851 97.6749 180.569 95.5422 180.569 93.3328C180.569 91.1237 180.851 88.9904 181.415 86.9329C181.999 84.8755 182.811 82.9588 183.851 81.1829C184.913 79.407 186.18 77.7827 187.654 76.3099C189.126 74.8373 190.751 73.5811 192.528 72.5416C194.325 71.502 196.242 70.7007 198.28 70.1376C200.337 69.5528 202.471 69.2605 204.681 69.2605C206.891 69.2605 209.025 69.5528 211.082 70.1376C213.141 70.7007 215.058 71.502 216.834 72.5416C218.611 73.5811 220.236 74.8373 221.708 76.3099C223.182 77.7827 224.438 79.407 225.478 81.1829C226.517 82.9588 227.32 84.8755 227.883 86.9329C228.468 88.9904 228.76 91.1237 228.76 93.3328ZM219.499 93.3328C219.499 91.2969 219.109 89.3803 218.329 87.5826C217.549 85.7634 216.488 84.1933 215.145 82.8722C213.823 81.5294 212.252 80.4682 210.433 79.6885C208.635 78.9088 206.718 78.5191 204.681 78.5191C202.623 78.5191 200.695 78.9088 198.897 79.6885C197.098 80.4682 195.528 81.5294 194.185 82.8722C192.842 84.1933 191.78 85.7634 191.001 87.5826C190.221 89.3803 189.831 91.2969 189.831 93.3328C189.831 95.3685 190.221 97.285 191.001 99.0832C191.78 100.858 192.842 102.418 194.185 103.761C195.528 105.103 197.098 106.165 198.897 106.944C200.695 107.724 202.623 108.114 204.681 108.114C206.718 108.114 208.635 107.724 210.433 106.944C212.252 106.165 213.823 105.103 215.145 103.761C216.488 102.418 217.549 100.858 218.329 99.0832C219.109 97.285 219.499 95.3685 219.499 93.3328ZM280.557 93.3328C280.557 95.5422 280.265 97.6749 279.68 99.7328C279.117 101.768 278.315 103.685 277.275 105.482C276.235 107.258 274.979 108.883 273.506 110.356C272.033 111.829 270.408 113.095 268.632 114.156C266.855 115.196 264.938 115.997 262.88 116.561C260.822 117.145 258.688 117.438 256.478 117.438C254.269 117.438 252.135 117.145 250.077 116.561C248.041 115.997 246.123 115.196 244.325 114.156C242.549 113.095 240.924 111.829 239.451 110.356C237.978 108.883 236.711 107.258 235.649 105.482C234.609 103.685 233.796 101.768 233.212 99.7328C232.648 97.6749 232.367 95.5422 232.367 93.3328C232.367 91.1237 232.648 88.9904 233.212 86.9329C233.796 84.8755 234.609 82.9588 235.649 81.1829C236.711 79.407 237.978 77.7827 239.451 76.3099C240.924 74.8373 242.549 73.5811 244.325 72.5416C246.123 71.502 248.041 70.7007 250.077 70.1376C252.135 69.5528 254.269 69.2605 256.478 69.2605C258.688 69.2605 260.822 69.5528 262.88 70.1376C264.938 70.7007 266.855 71.502 268.632 72.5416C270.408 73.5811 272.033 74.8373 273.506 76.3099C274.979 77.7827 276.235 79.407 277.275 81.1829C278.315 82.9588 279.117 84.8755 279.68 86.9329C280.265 88.9904 280.557 91.1237 280.557 93.3328ZM271.297 93.3328C271.297 91.2969 270.907 89.3803 270.126 87.5826C269.346 85.7634 268.285 84.1933 266.942 82.8722C265.62 81.5294 264.05 80.4682 262.23 79.6885C260.432 78.9088 258.515 78.5191 256.478 78.5191C254.421 78.5191 252.492 78.9088 250.695 79.6885C248.896 80.4682 247.326 81.5294 245.982 82.8722C244.639 84.1933 243.577 85.7634 242.798 87.5826C242.018 89.3803 241.628 91.2969 241.628 93.3328C241.628 95.3685 242.018 97.285 242.798 99.0832C243.577 100.858 244.639 102.418 245.982 103.761C247.326 105.103 248.896 106.165 250.695 106.944C252.492 107.724 254.421 108.114 256.478 108.114C258.515 108.114 260.432 107.724 262.23 106.944C264.05 106.165 265.62 105.103 266.942 103.761C268.285 102.418 269.346 100.858 270.126 99.0832C270.907 97.285 271.297 95.3685 271.297 93.3328ZM332.94 103.111C332.94 105.039 332.572 106.858 331.835 108.569C331.12 110.258 330.124 111.742 328.845 113.02C327.589 114.275 326.106 115.272 324.394 116.008C322.704 116.722 320.895 117.08 318.967 117.08C317.234 117.08 315.566 116.777 313.963 116.171C312.381 115.564 310.951 114.677 309.673 113.507C308.395 114.677 306.955 115.564 305.351 116.171C303.748 116.777 302.08 117.08 300.347 117.08C298.419 117.08 296.6 116.722 294.888 116.008C293.198 115.272 291.715 114.275 290.436 113.02C289.179 111.742 288.183 110.258 287.446 108.569C286.732 106.858 286.374 105.039 286.374 103.111V69.8452H295.7V103.111C295.7 103.761 295.82 104.378 296.058 104.963C296.296 105.526 296.621 106.024 297.032 106.457C297.466 106.868 297.964 107.194 298.528 107.432C299.091 107.67 299.697 107.789 300.347 107.789C300.998 107.789 301.604 107.67 302.167 107.432C302.731 107.194 303.218 106.868 303.629 106.457C304.063 106.024 304.398 105.526 304.637 104.963C304.875 104.378 304.994 103.761 304.994 103.111V69.8452H314.321V103.111C314.321 103.761 314.44 104.378 314.677 104.963C314.916 105.526 315.241 106.024 315.652 106.457C316.086 106.868 316.584 107.194 317.147 107.432C317.711 107.67 318.317 107.789 318.967 107.789C319.617 107.789 320.223 107.67 320.787 107.432C321.35 107.194 321.837 106.868 322.249 106.457C322.682 106.024 323.018 105.526 323.257 104.963C323.517 104.378 323.646 103.761 323.646 103.111V69.8452H332.94V103.111Z" fill="#342B56"/>
<path d="M67.4685 120.312C67.4685 120.312 79.1656 84.1275 49.8601 76.4736C49.8601 76.4736 45.6736 73.7247 45.422 72.7545C45.1705 71.7843 42.3135 68.5683 40.391 67.7239C40.391 67.7239 38.72 62.5674 37.642 61.8487C37.642 61.8487 39.9238 49.3977 37.1568 48.0682C34.4077 46.7746 30.4548 54.4284 30.4548 54.4284C30.4548 54.4284 23.627 55.1471 22.7825 54.7878C21.938 54.4284 15.1102 47.6011 13.7986 48.6791C12.4869 49.7571 12.5948 52.0388 14.3915 61.6151C14.3915 61.6151 7.9231 68.9276 18.578 79.4561C18.578 79.4561 19.171 80.6599 19.7819 82.8159C20.3748 84.9719 18.8295 86.3553 21.0936 91.2962C23.3755 96.2371 27.9213 103.657 27.2026 105.095C27.2026 105.095 27.6878 121.624 25.9988 122.342C24.3098 123.061 21.1474 126.17 24.9207 127.966C24.9207 127.966 24.9387 130.122 26.2324 130.715C29.0533 132.027 31.982 131.794 33.2937 130.715C34.6053 129.637 35.4499 129.404 36.6537 126.637L39.5286 127.122C39.3309 127.571 38.8637 128.828 39.3848 130.068C39.3848 130.068 39.816 131.075 41.0918 131.794C43.1221 132.943 49.6085 132.243 57.8557 129.996C57.8557 129.996 61.6829 132.637 67.9177 129.277C74.1526 125.919 89.2456 125.81 93.1984 129.996C97.1517 134.183 81.4835 136.608 81.4835 136.608C81.4835 136.608 76.0932 140.795 83.1544 141.513C90.2158 142.232 107.717 135.045 100.637 127.858C93.5579 120.672 79.4351 117.797 67.4685 120.312Z" fill="#7159CA"/>
<path d="M255.325 30.3573C255.325 30.3553 255.325 30.3537 255.325 30.3517V30.3436C255.325 30.348 255.325 30.3529 255.325 30.3573Z" fill="#7159CA"/>
<path d="M255.325 30.3517V30.3436C255.325 30.348 255.325 30.3529 255.325 30.3573C255.325 30.3553 255.325 30.3537 255.325 30.3517Z" fill="#7159CA"/>
<path d="M271.358 58.3039C271.353 58.3769 271.341 58.4515 271.332 58.5256C271.319 58.5982 271.303 58.684 271.286 58.7462C271.252 58.8841 271.212 59.0263 271.164 59.1631C271.07 59.4381 270.945 59.712 270.761 59.9619C270.578 60.2099 270.319 60.4328 270.005 60.5426C269.693 60.6562 269.359 60.6519 269.062 60.5935C268.969 60.5754 268.927 60.5646 268.844 60.5414C268.765 60.5198 268.693 60.4946 268.62 60.4652C268.475 60.4066 268.331 60.327 268.203 60.2215C268.074 60.1172 267.967 59.9847 267.886 59.8457C267.804 59.7066 267.749 59.561 267.705 59.4191C267.619 59.1344 267.574 58.8613 267.514 58.6001C267.485 58.4696 267.452 58.3422 267.415 58.2177C267.378 58.0964 267.328 57.9682 267.282 57.8376C267.235 57.7094 267.185 57.5873 267.136 57.4617L266.978 57.087C266.761 56.5894 266.518 56.1011 266.262 55.6202C265.748 54.659 265.174 53.7241 264.518 52.8561C264.353 52.6371 264.185 52.4311 263.997 52.2465C263.809 52.0591 263.603 51.8868 263.385 51.7304C262.95 51.4167 262.468 51.1648 261.966 50.9546C260.96 50.532 259.883 50.2829 258.815 49.9927C258.547 49.9197 258.282 49.8474 258.014 49.7806C257.747 49.7158 257.479 49.6539 257.209 49.5932C256.669 49.472 256.127 49.3522 255.594 49.193L255.196 49.0651C255.068 49.0185 254.936 48.9666 254.809 48.908C254.556 48.7925 254.311 48.6615 254.069 48.529C253.688 48.3216 253.302 48.1118 252.888 47.9788C252.829 48.1809 252.775 48.3845 252.727 48.5893C252.607 49.1104 252.522 49.6357 252.52 50.1569C252.518 50.6776 252.605 51.188 252.81 51.6589C253.014 52.1093 253.363 52.537 253.666 53.0095C253.819 53.247 253.962 53.5012 254.067 53.7801C254.17 54.0502 254.229 54.3454 254.23 54.6412C254.238 54.6903 254.244 54.7405 254.245 54.7927C254.244 54.8552 254.236 54.9178 254.22 54.9793C254.203 55.0403 254.179 55.0986 254.151 55.1527C254.125 55.1979 254.095 55.2388 254.065 55.2774C253.448 56.163 252.785 56.9962 252.081 57.8044C251.375 58.6095 250.626 59.3813 249.813 60.0875C248.998 60.7913 248.118 61.4392 247.125 61.9143C246.629 62.148 246.101 62.3358 245.546 62.4301C245.477 62.4432 245.408 62.4532 245.337 62.461C245.267 62.4706 245.197 62.4772 245.127 62.4814C244.987 62.495 244.837 62.4927 244.713 62.4958C244.46 62.5031 244.189 62.5216 243.924 62.5367C243.39 62.5668 242.852 62.5966 242.3 62.573C242.023 62.5579 241.745 62.5386 241.444 62.4447C241.368 62.4201 241.291 62.3887 241.209 62.3381L241.179 62.3184L241.164 62.3084C241.167 62.3107 241.144 62.2938 241.143 62.2926L241.104 62.2612C241.082 62.2439 241.047 62.2111 241.013 62.1794C240.891 62.0584 240.8 61.9159 240.743 61.7575C240.624 61.4403 240.657 61.1054 240.751 60.8184C240.846 60.5286 241.007 60.2729 241.205 60.0528C241.404 59.8321 241.636 59.6517 241.917 59.5162C242.067 59.4446 242.238 59.4115 242.39 59.4025C242.544 59.3933 242.69 59.403 242.827 59.4152C243.101 59.4408 243.354 59.4775 243.567 59.4458C243.594 59.4427 243.619 59.4373 243.644 59.4315C243.656 59.4285 243.669 59.4262 243.681 59.4223L243.699 59.4168L243.708 59.4141C243.711 59.4129 243.711 59.4126 243.711 59.4129C243.74 59.4018 243.777 59.3894 243.798 59.3789C243.819 59.3678 243.838 59.3619 243.862 59.3473C243.954 59.2971 244.039 59.2314 244.124 59.1461C244.209 59.0622 244.295 58.9637 244.392 58.8621C244.441 58.8115 244.491 58.7605 244.544 58.7114C244.598 58.6616 244.657 58.6129 244.706 58.5727C244.913 58.404 245.116 58.2363 245.316 58.0655C245.718 57.7241 246.11 57.3728 246.482 57.005C246.668 56.8212 246.848 56.6327 247.023 56.4395C247.192 56.2502 247.358 56.0501 247.449 55.8554C247.543 55.6595 247.536 55.4981 247.438 55.2937C247.341 55.0932 247.181 54.89 247.017 54.6926C246.935 54.5952 246.846 54.4914 246.763 54.401C246.672 54.3043 246.583 54.2031 246.493 54.1108C246.313 53.9277 246.126 53.7457 245.933 53.5661C245.548 53.208 245.147 52.8603 244.75 52.501C244.352 52.1407 243.969 51.7717 243.584 51.4071C242.817 50.68 242.041 49.9649 241.098 49.5771C240.629 49.3796 240.128 49.2603 239.616 49.1953C239.357 49.1602 239.107 49.1475 238.834 49.1308C238.57 49.1165 238.296 49.0926 238.026 49.064C236.95 48.9473 235.898 48.7221 234.856 48.5115C234.334 48.4061 233.814 48.3057 233.293 48.2242L232.902 48.167L232.513 48.1184L232.115 48.0778L231.722 48.0449C230.668 47.965 229.601 47.9387 228.531 47.8653C227.581 47.7981 226.624 47.6976 225.684 47.4739C225.58 47.8699 225.511 48.2752 225.476 48.6839C225.42 49.3252 225.447 49.9746 225.532 50.6177C225.701 51.9077 226.094 53.1675 226.503 54.4237L226.657 54.8989C226.708 55.0631 226.752 55.225 226.795 55.3883C226.879 55.7148 226.949 56.0432 227.011 56.3727C227.133 57.0329 227.217 57.7 227.249 58.3738C227.276 59.0471 227.26 59.7302 227.107 60.4078C227.029 60.7453 226.915 61.083 226.729 61.3963C226.634 61.5516 226.52 61.6996 226.385 61.8305C226.255 61.9561 226.102 62.0627 225.938 62.1438L225.598 62.3753L225.543 62.4127L225.475 62.4134C225.194 62.4158 224.89 62.4752 224.587 62.5379C224.281 62.6012 223.972 62.6723 223.651 62.7233C223.33 62.7727 222.998 62.8098 222.648 62.7638C222.474 62.7399 222.294 62.6917 222.127 62.6028C221.961 62.5147 221.813 62.3841 221.704 62.2327C221.675 62.1956 221.651 62.1562 221.628 62.1164L221.594 62.0569L221.565 61.9951L221.54 61.9418C221.532 61.9236 221.522 61.897 221.515 61.875C221.498 61.829 221.481 61.7822 221.472 61.737C221.425 61.5566 221.422 61.355 221.47 61.1687C221.52 60.983 221.613 60.8188 221.721 60.6785C221.829 60.5375 221.952 60.4181 222.081 60.3104C222.337 60.0952 222.611 59.9229 222.882 59.7575C223.106 59.6208 223.332 59.491 223.54 59.3531C223.417 58.9699 223.305 58.587 223.192 58.2049L222.805 56.9112C222.543 56.0521 222.262 55.1998 221.934 54.3685C221.604 53.5391 221.232 52.7239 220.755 51.9814C220.516 51.6117 220.249 51.261 219.942 50.9573C219.635 50.6537 219.283 50.4014 218.892 50.2547L218.874 50.2481L218.858 50.2384C218.241 49.8722 217.623 49.5106 216.957 49.3132C216.624 49.2139 216.271 49.1455 215.916 49.0687L215.653 49.0157C215.568 48.9999 215.483 48.9856 215.398 48.9748C215.229 48.9547 215.068 48.9446 214.927 48.9813C214.784 49.0138 214.634 49.0919 214.475 49.1769C214.317 49.2614 214.155 49.3487 213.988 49.4291C213.946 49.4495 213.909 49.4692 213.862 49.4901L213.737 49.5465C213.649 49.5844 213.56 49.6203 213.474 49.6524C213.297 49.7169 213.119 49.7729 212.939 49.8212C212.22 50.0147 211.493 50.0924 210.793 50.2295C210.443 50.2976 210.099 50.3802 209.767 50.4942C209.602 50.5513 209.439 50.6147 209.281 50.6885C209.241 50.7059 209.203 50.7267 209.164 50.7453L209.109 50.7727L209.05 50.8051L208.811 50.9346C208.508 51.1091 208.21 51.3038 207.92 51.5102C207.631 51.7191 207.351 51.9398 207.075 52.1676C206.524 52.6254 205.992 53.1118 205.452 53.5935C205.181 53.8354 204.912 54.071 204.627 54.309C204.352 54.5335 204.049 54.7633 203.744 54.9626C203.135 55.3702 202.491 55.7152 201.851 56.0528C201.21 56.3897 200.574 56.7242 199.971 57.1067C199.672 57.3025 199.379 57.4996 199.101 57.7232C198.825 57.9461 198.555 58.1829 198.287 58.4233C197.752 58.9038 197.221 59.3959 196.674 59.8719C196.127 60.3474 195.566 60.811 194.97 61.2337C194.374 61.6548 193.742 62.0395 193.049 62.3092C192.702 62.4417 192.339 62.5436 191.963 62.5861C191.589 62.629 191.199 62.6097 190.83 62.5062C190.46 62.4054 190.117 62.2207 189.821 61.9866C189.525 61.7517 189.274 61.4705 189.056 61.1711L189.051 61.1657L189.049 61.1599C188.967 61.0212 188.926 60.8539 188.937 60.694C188.948 60.5341 189 60.3846 189.07 60.254C189.212 59.9905 189.418 59.7839 189.645 59.6115C189.873 59.4408 190.125 59.3009 190.409 59.2218C190.679 59.1541 190.932 59.0916 191.187 59.0116C191.439 58.932 191.681 58.8362 191.906 58.7095C192.131 58.5831 192.338 58.4228 192.538 58.2497C192.738 58.0763 192.931 57.8913 193.122 57.7028L193.704 57.1403C194.091 56.7652 194.48 56.3916 194.875 56.0239L196.058 54.919L197.239 53.8145C197.631 53.4448 198.026 53.0786 198.408 52.7008C199.174 51.9474 199.911 51.1637 200.571 50.3211C200.9 49.8992 201.209 49.4623 201.481 49.0045C201.549 48.8906 201.616 48.7758 201.677 48.6576L201.771 48.4814L201.856 48.3018C201.883 48.2431 201.915 48.179 201.938 48.1249C201.961 48.0623 201.988 47.9993 202.009 47.9375C202.027 47.8765 202.046 47.8167 202.063 47.7548C202.078 47.6915 202.092 47.6285 202.105 47.5644C202.202 47.0502 202.175 46.5128 202.203 45.9708C202.218 45.6997 202.248 45.4257 202.311 45.1565C202.38 44.888 202.459 44.6373 202.532 44.3769L202.643 43.9894L202.837 43.2121L202.92 42.82C202.979 42.5589 203.017 42.2955 203.059 42.0324C203.073 41.9006 203.09 41.7685 203.101 41.6368L203.11 41.4397C203.11 41.3907 203.111 41.3374 203.109 41.2898C202.916 41.1817 202.714 41.0816 202.51 40.9904C202.292 40.8931 202.07 40.8051 201.846 40.7297C201.62 40.6543 201.39 40.5914 201.158 40.5481C200.926 40.506 200.69 40.4825 200.457 40.496C200.342 40.5034 200.226 40.5176 200.115 40.5473C199.996 40.5748 199.885 40.6111 199.76 40.6316C199.517 40.6795 199.274 40.7046 199.029 40.71C198.541 40.7224 198.059 40.671 197.581 40.6458C197.342 40.6335 197.102 40.6292 196.865 40.6412C196.627 40.654 196.383 40.671 196.14 40.6698C195.655 40.6694 195.163 40.6212 194.695 40.4713C194.462 40.3967 194.237 40.2978 194.025 40.1765C193.812 40.0571 193.614 39.9149 193.422 39.7655C193.043 39.463 192.7 39.1257 192.355 38.7908L192.266 38.7051H192.338C192.322 38.4725 192.35 38.2399 192.4 38.0163C192.453 37.7736 192.529 37.5391 192.604 37.3061C192.679 37.0728 192.754 36.8411 192.811 36.6051C192.87 36.3686 192.901 36.1314 192.909 35.8869C192.934 35.399 192.958 34.9021 193.101 34.4254C193.241 33.948 193.506 33.5184 193.807 33.1305C193.956 32.9323 194.133 32.7573 194.311 32.5881L194.851 32.0867C195.03 31.9186 195.205 31.7475 195.364 31.5621C195.521 31.3771 195.667 31.1753 195.744 30.9482C195.822 30.7176 195.84 30.4708 195.784 30.2347C195.73 29.9983 195.614 29.7804 195.497 29.5664C195.378 29.352 195.257 29.1352 195.187 28.8981C195.114 28.662 195.103 28.4078 195.154 28.1668L195.158 28.1479L195.171 28.1617L195.312 28.3074L195.313 28.3078V28.3086C195.342 28.3518 195.374 28.3936 195.408 28.4326C195.444 28.4712 195.482 28.5071 195.522 28.5407C195.563 28.5736 195.606 28.6037 195.65 28.6319C195.694 28.659 195.741 28.684 195.789 28.7072C195.979 28.7984 196.183 28.8551 196.387 28.9104C196.591 28.966 196.797 29.0186 196.992 29.1008C197.09 29.1422 197.183 29.1917 197.27 29.2531C197.288 29.2659 197.305 29.279 197.321 29.2925C197.309 29.2767 197.296 29.2604 197.283 29.2442C197.175 29.104 197.073 28.9591 196.982 28.8065C196.874 28.623 196.783 28.428 196.733 28.22C196.682 28.0138 196.68 27.7917 196.746 27.5877C196.812 27.3826 196.94 27.2029 197.094 27.0538L197.1 27.048L197.108 27.0531L197.231 27.1372L197.293 27.1801L197.323 27.2029L197.326 27.2049L197.327 27.206C197.327 27.2072 197.328 27.2033 197.331 27.2149C197.33 27.2199 197.329 27.2226 197.326 27.2246C197.72 27.7167 198.211 28.1247 198.743 28.4623C199.288 28.8069 199.88 29.0762 200.497 29.2627C201.114 29.4505 201.755 29.5559 202.399 29.5776C203.045 29.5864 203.695 29.6151 204.34 29.678C205.632 29.7981 206.911 30.0045 208.2 30.0984C208.522 30.1192 208.845 30.137 209.167 30.1409C209.491 30.1482 209.811 30.1428 210.128 30.101C210.766 30.0226 211.386 29.8399 211.994 29.6259C212.603 29.4126 213.205 29.1715 213.829 28.9858C214.452 28.8003 215.102 28.6737 215.759 28.676C217.068 28.6817 218.346 28.9607 219.626 29.0985C220.265 29.1669 220.91 29.1909 221.547 29.1283C221.865 29.0978 222.181 29.0468 222.492 28.9726C222.802 28.8962 223.118 28.8104 223.429 28.7297C224.685 28.4051 225.95 28.1189 227.223 27.8701C229.767 27.3748 232.347 27.0322 234.942 26.9209C235.591 26.8966 236.239 26.8796 236.891 26.8862C237.214 26.8912 237.538 26.8919 237.863 26.9085C238.189 26.9205 238.514 26.9344 238.838 26.9565C240.133 27.0334 241.423 27.1585 242.712 27.2485C243.997 27.3323 245.298 27.4189 246.557 27.2292C246.872 27.184 247.181 27.1117 247.487 27.0279C247.79 26.9348 248.091 26.8332 248.378 26.7007C248.959 26.4442 249.505 26.1127 250.025 25.7415C251.07 24.9913 252.087 24.1904 253.162 23.4607C253.699 23.0956 254.25 22.7484 254.822 22.4335C254.965 22.3547 255.11 22.2802 255.254 22.2033L255.692 21.9858L256.139 21.7822L256.583 21.5882C257.176 21.3294 257.767 21.0729 258.333 20.7789C258.897 20.4822 259.435 20.1426 259.909 19.7281C260.383 19.3132 260.797 18.8334 261.157 18.3123C261.518 17.7962 261.784 17.2295 261.932 16.6238C262.08 16.0195 262.112 15.389 262.06 14.7633C262.009 14.1362 261.882 13.5131 261.726 12.8954C261.414 11.6588 260.981 10.4393 260.733 9.15629C260.61 8.51578 260.534 7.85827 260.564 7.19575C260.592 6.53438 260.73 5.8707 260.991 5.25607C261.117 4.95011 261.282 4.64994 261.453 4.37759C261.628 4.0952 261.814 3.82671 262.018 3.56595C262.425 3.04636 262.898 2.57041 263.443 2.18294C263.984 1.79238 264.595 1.49685 265.232 1.3006C265.871 1.1032 266.538 1.01319 267.194 0.977259C267.371 0.970689 267.548 0.974552 267.733 1.01782C267.916 1.05916 268.111 1.14338 268.26 1.30021C268.409 1.45629 268.483 1.66258 268.505 1.85033C268.528 2.0404 268.512 2.22119 268.48 2.3931C268.416 2.73692 268.294 3.05099 268.156 3.35386C268.016 3.65596 267.855 3.94453 267.683 4.22422C267.508 4.50392 267.322 4.77511 267.115 5.03625C267.062 5.10155 267.009 5.16605 266.951 5.23018C266.896 5.29392 266.829 5.36076 266.773 5.41407C266.656 5.52803 266.551 5.63543 266.444 5.7521C266.023 6.21219 265.674 6.7314 265.535 7.31435C265.393 7.89691 265.452 8.52235 265.57 9.13891C265.629 9.44953 265.704 9.75428 265.781 10.0691C265.858 10.3789 265.933 10.7 265.994 11.0191C266.12 11.6573 266.214 12.3028 266.266 12.9533C266.315 13.6039 266.321 14.2587 266.276 14.9116C266.185 16.2169 265.874 17.5126 265.338 18.7114C264.808 19.9136 264.062 21.01 263.201 21.9931C262.982 22.2376 262.769 22.4795 262.52 22.7097C262.279 22.9361 262.031 23.147 261.783 23.356L260.286 24.5868C259.298 25.4085 258.339 26.2619 257.497 27.2161C256.659 28.1672 255.936 29.231 255.541 30.4144L255.533 30.4406L255.518 30.4638C255.479 30.526 255.454 30.6059 255.44 30.6952C255.475 30.764 255.514 30.8308 255.554 30.8968C255.659 31.0692 255.776 31.2348 255.894 31.3979C256.132 31.7243 256.385 32.0407 256.635 32.3587C256.887 32.6762 257.141 32.9915 257.388 33.3141C257.511 33.4755 257.633 33.6385 257.747 33.8089C257.804 33.8939 257.86 33.9808 257.91 34.0735L258.048 34.3455C258.409 35.0814 258.662 35.8591 258.878 36.6409C258.988 37.0319 259.082 37.4255 259.183 37.8165C259.282 38.2075 259.383 38.5965 259.498 38.9809L259.541 39.1249C259.553 39.1663 259.572 39.2192 259.587 39.2656L259.636 39.4093L259.688 39.5453C259.758 39.7264 259.841 39.9084 259.929 40.0846C260.107 40.4384 260.314 40.7776 260.543 41.1025C261.004 41.7518 261.546 42.343 262.138 42.8803C262.729 43.4173 263.372 43.8998 264.048 44.3239C264.725 44.7493 265.438 45.1167 266.183 45.3894C266.26 45.4175 266.315 45.4852 266.326 45.5655V45.5663C266.392 46.0488 266.621 46.5066 266.888 46.9531C267.154 47.402 267.464 47.8483 267.693 48.3632L267.846 48.7372C267.893 48.865 267.943 48.9941 267.988 49.1211C268.077 49.3753 268.161 49.6292 268.245 49.8811C268.329 50.1329 268.41 50.3837 268.502 50.6289C268.544 50.7526 268.591 50.8739 268.639 50.9947L268.675 51.0856L268.692 51.1285L268.711 51.174C268.737 51.2343 268.764 51.2984 268.79 51.3549C268.894 51.5866 269.014 51.8222 269.137 52.0529C269.259 52.2843 269.389 52.5142 269.52 52.7448C269.783 53.206 270.052 53.6696 270.297 54.1521C270.541 54.6346 270.761 55.1387 270.908 55.675C271.039 56.1556 271.104 56.6667 271.065 57.1754L271.205 57.2457L271.322 57.3032L271.337 57.4277C271.376 57.7244 271.382 58.0102 271.358 58.3039Z" fill="#7159CA"/>
<path d="M252.55 47.8904C252.666 47.909 252.78 47.9344 252.892 47.9657C252.892 47.9676 252.891 47.9696 252.89 47.9715C252.889 47.9738 252.889 47.9765 252.888 47.9788C252.785 47.9457 252.679 47.917 252.572 47.895C252.565 47.8931 252.557 47.892 252.55 47.8904Z" fill="#7159CA"/>
<path d="M255.44 30.6952C255.439 30.6995 255.438 30.7041 255.437 30.7083C255.437 30.7126 255.436 30.7165 255.436 30.7207C255.423 30.6929 255.41 30.6647 255.398 30.6361C255.36 30.5457 255.325 30.4502 255.325 30.3514V30.3436C255.325 30.3498 255.325 30.3564 255.325 30.3625C255.333 30.4573 255.37 30.5464 255.409 30.6318C255.419 30.6531 255.429 30.6743 255.44 30.6952Z" fill="#7159CA"/>
</svg>
